<?xml version="1.0" encoding="utf-8"?>
<!-- Generator: Adobe Illustrator 16.2.0, SVG Export Plug-In . SVG Version: 6.00 Build 0)  -->
<!DOCTYPE svg PUBLIC "-//W3C//DTD SVG 1.1//EN" "http://www.w3.org/Graphics/SVG/1.1/DTD/svg11.dtd">
<svg version="1.1" id="Слой_1" xmlns="http://www.w3.org/2000/svg" xmlns:xlink="http://www.w3.org/1999/xlink" x="0px" y="0px"
	 width="15.553px" height="22.091px" viewBox="0 0 15.553 22.091" enable-background="new 0 0 15.553 22.091" xml:space="preserve">
<g transform="translate(410 41)" opacity="0.6">
	<g>
		<path fill="#333333" d="M-402.751-20.32c-0.332-0.443-1.998-2.885-3.552-5.66c-2.22-3.884-3.33-5.549-3.33-7.214
			c0-4.108,3.33-7.438,7.437-7.438s7.439,3.33,7.439,7.438c0,1.665-1.111,3.33-3.333,7.214c-1.662,2.887-3.328,5.438-3.55,5.66
			l-0.557,0.778L-402.751-20.32z M-402.196-38.966c-3.219,0-5.77,2.663-5.77,5.772c0,2.109,2.996,6.437,5.549,10.433l0.112,0.223
			l0.108-0.223c2.554-3.996,5.549-8.213,5.549-10.433C-396.534-36.303-399.087-38.966-402.196-38.966z"/>
		<path fill="#333333" d="M-402.196-18.909l-0.854-1.196c-0.333-0.445-2.019-2.918-3.573-5.695
			c-0.296-0.519-0.573-0.999-0.831-1.446c-1.694-2.935-2.545-4.408-2.545-5.948c0-4.304,3.5-7.806,7.804-7.806
			s7.806,3.502,7.806,7.806c0,1.541-0.852,3.015-2.549,5.953c-0.257,0.445-0.533,0.924-0.831,1.443
			c-1.597,2.772-3.325,5.455-3.61,5.738L-402.196-18.909z M-402.196-40.264c-3.897,0-7.067,3.171-7.067,7.07
			c0,1.343,0.816,2.759,2.446,5.581c0.257,0.447,0.535,0.929,0.834,1.451c1.538,2.748,3.195,5.179,3.526,5.623l0.261,0.366
			l0.257-0.359c0.243-0.264,1.859-2.729,3.531-5.631c0.297-0.52,0.574-0.999,0.832-1.445c1.631-2.824,2.45-4.241,2.45-5.585
			C-395.126-37.093-398.297-40.264-402.196-40.264z M-402.302-21.713l-0.443-0.884c-0.309-0.479-0.643-0.995-0.977-1.512
			c-2.372-3.671-4.612-7.138-4.612-9.086c0-3.386,2.754-6.14,6.138-6.14c1.6,0,3.104,0.647,4.239,1.824
			c1.124,1.165,1.735,2.743,1.678,4.329c0,1.984-2.158,5.303-4.444,8.818c-0.39,0.6-0.78,1.202-1.163,1.799L-402.302-21.713z
			 M-402.196-38.599c-2.979,0-5.401,2.425-5.401,5.404c0,1.73,2.283,5.267,4.494,8.687c0.268,0.414,0.534,0.827,0.798,1.238
			c0.326-0.511,0.646-1.003,0.966-1.494c2.126-3.271,4.325-6.652,4.325-8.431c0.05-1.401-0.486-2.783-1.472-3.805
			C-399.481-38.031-400.799-38.599-402.196-38.599z"/>
	</g>
	<g>
		<path fill="#333333" d="M-402.237-31.473c-0.93,0-1.706-0.776-1.706-1.705c-0.076-0.931,0.698-1.705,1.706-1.705
			c0.932,0,1.706,0.774,1.706,1.705C-400.531-32.249-401.306-31.473-402.237-31.473z"/>
	</g>
</g>
</svg>
