<?xml version="1.0" encoding="utf-8"?>
<!-- Generator: Adobe Illustrator 16.2.0, SVG Export Plug-In . SVG Version: 6.00 Build 0)  -->
<!DOCTYPE svg PUBLIC "-//W3C//DTD SVG 1.1//EN" "http://www.w3.org/Graphics/SVG/1.1/DTD/svg11.dtd">
<svg version="1.1" id="Слой_1" xmlns="http://www.w3.org/2000/svg" xmlns:xlink="http://www.w3.org/1999/xlink" x="0px" y="0px"
	 width="31.726px" height="36.222px" viewBox="0 0 31.726 36.222" enable-background="new 0 0 31.726 36.222" xml:space="preserve">
<g opacity="0.6">
	<path fill="#333333" d="M10.281,26.65l-1.41-2.285L5.893,24.9l3.917-6.95H2.172v18.271h13.014V17.95L10.281,26.65z M10.281,26.65"
		/>
	<path fill="#333333" d="M31.7,9.229h-8.638c0.503-0.258,0.957-0.528,1.354-0.818c1.536-1.1,2.354-2.499,2.348-3.885
		c0-1.133-0.535-2.757-1.315-3.438C24.668,0.403,23.629,0,22.521,0c-1.184,0-2.285,0.409-3.229,1.039
		c-1.417,0.95-2.524,3.003-3.312,4.57c-0.044,0.084-0.082,0.159-0.12,0.233c-0.289-0.604-0.629-1.819-1.014-2.366
		c-0.667-0.958-1.473-1.807-2.418-2.438C11.483,0.409,10.389,0,9.205,0C8.027,0.006,6.944,0.497,6.139,1.261
		c-0.8,0.754-1.366,2.454-1.366,3.663C4.766,5.635,4.974,6.378,5.396,7.052c0.535,0.844,1.386,1.58,2.563,2.178H0l0.019,7.266h14.94
		V9.229h1.819v7.266h14.947L31.7,9.229z M8.475,6.965c-0.599-0.386-0.97-0.764-1.184-1.104c-0.215-0.34-0.29-0.938-0.29-1.228
		c0-0.489,0.239-1.348,0.674-1.75C8.097,2.48,8.676,2.229,9.192,2.229h0.013c0.667,0.007,1.322,0.227,1.982,0.668
		c0.989,0.649,1.921,2.417,2.563,3.714c0.341,0.661,0.599,1.354,0.769,2.027C11.528,8.33,9.595,7.669,8.475,6.965L8.475,6.965z
		 M18.699,5.383c0.541-0.774,1.177-2.044,1.838-2.486c0.655-0.441,1.316-0.661,1.983-0.668h0.007c0.554,0,1.082,0.221,1.447,0.542
		c0.365,0.327,0.561,0.919,0.561,1.341c-0.013,0.497-0.265,1.637-1.429,2.487c-1.096,0.799-3.01,1.624-5.943,2.197
		C17.439,7.631,17.981,6.396,18.699,5.383L18.699,5.383z M18.699,5.383"/>
	<path fill="#333333" d="M25.852,24.869l-2.979-0.504l-1.404,2.317l-4.849-8.613v18.152h12.952V17.95h-7.637L25.852,24.869z
		 M25.852,24.869"/>
</g>
</svg>
