<?xml version="1.0" encoding="utf-8"?>
<!-- Generator: Adobe Illustrator 16.2.0, SVG Export Plug-In . SVG Version: 6.00 Build 0)  -->
<!DOCTYPE svg PUBLIC "-//W3C//DTD SVG 1.1//EN" "http://www.w3.org/Graphics/SVG/1.1/DTD/svg11.dtd">
<svg version="1.1" id="Слой_1" xmlns="http://www.w3.org/2000/svg" xmlns:xlink="http://www.w3.org/1999/xlink" x="0px" y="0px"
	 width="38.055px" height="31.813px" viewBox="0 0 38.055 31.813" enable-background="new 0 0 38.055 31.813" xml:space="preserve">
<g>
	<path fill-rule="evenodd" clip-rule="evenodd" fill="#00B8BB" d="M17.326,0c1.289,0,2.578,0,3.867,0
		c0.057,0.069,0.137,0.059,0.213,0.063c1.34,0.086,2.664,0.281,3.975,0.561c3.277,0.699,6.414,1.793,9.365,3.397
		c0.238,0.128,0.314,0.278,0.313,0.542c-0.014,1.509-0.006,3.018-0.01,4.525c0,0.107,0.037,0.228-0.047,0.336
		c-0.15-0.015-0.254-0.119-0.369-0.191c-0.654-0.402-1.354-0.684-2.113-0.816c-1.467-0.258-2.945-0.291-4.426-0.228
		c-2.623,0.11-5.004,0.927-7.061,2.575c-1.572,1.259-2.553,2.859-2.531,4.941c0.035,3.435,2.189,6.46,5.416,7.644
		c1.406,0.52,2.861,0.584,4.338,0.557c2.473-0.047,4.799-0.576,6.895-1.938c0.053-0.033,0.104-0.086,0.197-0.029
		c0,1.709-0.014,3.436,0.012,5.158c0.004,0.379-0.117,0.566-0.441,0.74c-5.621,2.967-11.584,4.369-17.947,3.879
		c-3.208-0.246-6.261-1.078-9.065-2.693c-4.129-2.375-6.731-5.863-7.619-10.576C0.172,17.843,0.095,17.236,0,16.628
		c0-0.927,0-1.857,0-2.785c0.141-0.242,0.098-0.521,0.139-0.781c0.679-4.25,2.784-7.595,6.375-9.965
		c2.638-1.743,5.625-2.48,8.721-2.873C15.93,0.138,16.637,0.151,17.326,0z M8.055,26.755c0.03-0.014,0.062-0.023,0.092-0.035
		c0-0.152,0-0.305,0-0.457c0-4.447-0.003-8.892,0.001-13.339c0.002-1.734,1.415-2.977,3.035-2.68
		c1.591,0.292,2.473,1.482,2.313,3.126c-0.131,1.365-0.884,2.054-2.258,2.073c-0.541,0.009-1.081-0.02-1.616-0.111
		c-0.247-0.041-0.34,0.016-0.336,0.29c0.017,0.901,0.016,1.803,0,2.704c-0.004,0.253,0.084,0.332,0.321,0.355
		c0.642,0.064,1.279,0.09,1.926,0.031c2.504-0.23,4.49-1.97,4.969-4.428c0.314-1.613-0.088-3.124-0.832-4.552
		c-1.221-2.347-3.869-3.501-6.493-2.855C6.76,7.475,5.04,9.742,5.038,12.336c0,3.158,0.029,6.315-0.018,9.472
		c-0.015,0.889,0.172,1.594,0.794,2.252C6.612,24.909,7.313,25.853,8.055,26.755z"/>
	<path fill-rule="evenodd" clip-rule="evenodd" fill="#00B8BB" d="M38.055,15.468c-0.656-0.003-1.314,0.004-1.969-0.019
		c-0.258-0.008-0.293,0.104-0.291,0.321c0.008,1.106-0.006,2.215,0.012,3.32c0.006,0.297-0.088,0.369-0.371,0.367
		c-1.365-0.014-2.73-0.016-4.094,0c-0.289,0.002-0.375-0.078-0.371-0.367c0.016-1.109-0.002-2.216,0.012-3.322
		c0.004-0.288-0.078-0.383-0.371-0.372c-0.564,0.023-1.133-0.002-1.699,0.013c-0.24,0.005-0.344-0.052-0.338-0.317
		c0.018-0.668,0.025-1.34-0.002-2.008c-0.016-0.342,0.141-0.366,0.41-0.366c2.859,0.007,5.719,0.005,8.576,0.004
		c0.166-0.001,0.334,0.03,0.496-0.037C38.055,13.611,38.055,14.539,38.055,15.468z"/>
</g>
</svg>
