<?xml version="1.0" encoding="utf-8"?>
<!-- Generator: Adobe Illustrator 16.2.0, SVG Export Plug-In . SVG Version: 6.00 Build 0)  -->
<!DOCTYPE svg PUBLIC "-//W3C//DTD SVG 1.1//EN" "http://www.w3.org/Graphics/SVG/1.1/DTD/svg11.dtd">
<svg version="1.1" id="Слой_1" xmlns="http://www.w3.org/2000/svg" xmlns:xlink="http://www.w3.org/1999/xlink" x="0px" y="0px"
	 width="32px" height="32px" viewBox="0 0 32 32" enable-background="new 0 0 32 32" xml:space="preserve">
<g>
	<polygon fill="#80C341" points="16,16 -0.001,0 32,0 32,32 	"/>
	<g>
		<g>
			<path fill="#FFFFFF" d="M16.626,8.869l-1.775-1.775l-1.83,1.833l-0.939-0.938l4.438-4.438l0.938,0.938L15.675,6.27l1.775,1.775
				l1.781-1.781l0.938,0.938l-4.438,4.438l-0.938-0.938L16.626,8.869z"/>
			<path fill="#FFFFFF" d="M18.619,10.086c0.361-0.363,0.734-0.643,1.115-0.836c0.381-0.195,0.756-0.303,1.127-0.323
				c0.373-0.022,0.738,0.042,1.094,0.192c0.357,0.15,0.695,0.385,1.018,0.707c0.342,0.342,0.586,0.697,0.729,1.065
				c0.145,0.368,0.199,0.738,0.168,1.112s-0.145,0.746-0.342,1.115c-0.195,0.369-0.465,0.726-0.809,1.068
				c-0.363,0.363-0.736,0.642-1.117,0.834c-0.385,0.193-0.762,0.297-1.137,0.316c-0.373,0.019-0.74-0.045-1.096-0.196
				c-0.357-0.149-0.695-0.384-1.01-0.7c-0.344-0.344-0.588-0.697-0.73-1.065c-0.145-0.368-0.199-0.738-0.168-1.112
				s0.148-0.746,0.346-1.113C18.005,10.783,18.275,10.429,18.619,10.086z M19.613,11.081c-0.221,0.22-0.4,0.442-0.539,0.665
				c-0.139,0.225-0.232,0.445-0.279,0.66s-0.039,0.426,0.023,0.631c0.061,0.205,0.182,0.398,0.363,0.58
				c0.334,0.332,0.709,0.479,1.123,0.438c0.412-0.043,0.887-0.33,1.42-0.863c0.211-0.211,0.389-0.426,0.531-0.646
				c0.145-0.22,0.24-0.439,0.287-0.659s0.039-0.433-0.02-0.64c-0.061-0.207-0.184-0.405-0.375-0.596
				c-0.33-0.33-0.705-0.469-1.127-0.418C20.597,10.283,20.128,10.565,19.613,11.081z"/>
			<path fill="#FFFFFF" d="M27.923,16.603l-1.406-1.407l-3.615,3.613l-0.938-0.938l3.613-3.612l-1.408-1.408l0.824-0.824
				l3.754,3.754L27.923,16.603z"/>
		</g>
	</g>
</g>
</svg>
