<?xml version="1.0" encoding="utf-8"?>
<!-- Generator: Adobe Illustrator 16.2.0, SVG Export Plug-In . SVG Version: 6.00 Build 0)  -->
<!DOCTYPE svg PUBLIC "-//W3C//DTD SVG 1.1//EN" "http://www.w3.org/Graphics/SVG/1.1/DTD/svg11.dtd">
<svg version="1.1" id="Слой_1" xmlns="http://www.w3.org/2000/svg" xmlns:xlink="http://www.w3.org/1999/xlink" x="0px" y="0px"
	 width="12.117px" height="11.117px" viewBox="0 0 12.117 11.117" enable-background="new 0 0 12.117 11.117" xml:space="preserve">
<g>
	<g id="Cloud_x5F_Fog">
		<g>
			<path fill="#FFFFFF" d="M10.834,8.552H1.283C0.575,8.552,0,9.126,0,9.834s0.575,1.283,1.283,1.283h9.552
				c0.708,0,1.282-0.574,1.282-1.283S11.542,8.552,10.834,8.552z M1.283,2.565h9.552c0.708,0,1.282-0.574,1.282-1.283
				S11.542,0,10.834,0H1.283C0.575,0,0,0.574,0,1.283S0.575,2.565,1.283,2.565z M10.834,4.276H1.283C0.575,4.276,0,4.85,0,5.559
				s0.575,1.283,1.283,1.283h9.552c0.708,0,1.282-0.574,1.282-1.283S11.542,4.276,10.834,4.276z"/>
		</g>
	</g>
</g>
</svg>
