<?xml version="1.0" encoding="utf-8"?>
<!-- Generator: Adobe Illustrator 16.2.0, SVG Export Plug-In . SVG Version: 6.00 Build 0)  -->
<!DOCTYPE svg PUBLIC "-//W3C//DTD SVG 1.1//EN" "http://www.w3.org/Graphics/SVG/1.1/DTD/svg11.dtd">
<svg version="1.1" id="Слой_1" xmlns="http://www.w3.org/2000/svg" xmlns:xlink="http://www.w3.org/1999/xlink" x="0px" y="0px"
	 width="45.715px" height="45.714px" viewBox="0 0 45.715 45.714" enable-background="new 0 0 45.715 45.714" xml:space="preserve">
<g>
	<rect fill="#333333" width="45.715" height="45.714"/>
	<g>
		<g id="Cloud_x5F_Fog_4_">
			<g>
				<path fill="#FFFFFF" d="M16.887,18.952h12.769c0.946,0,1.715-0.768,1.715-1.714c0-0.947-0.769-1.715-1.715-1.715H16.887
					c-0.946,0-1.714,0.768-1.714,1.715C15.173,18.185,15.94,18.952,16.887,18.952z M29.655,21.238H16.887
					c-0.946,0-1.714,0.768-1.714,1.715s0.768,1.715,1.714,1.715h12.769c0.946,0,1.715-0.768,1.715-1.715
					S30.602,21.238,29.655,21.238z M29.655,26.954H16.887c-0.946,0-1.714,0.768-1.714,1.714c0,0.947,0.768,1.715,1.714,1.715h12.769
					c0.946,0,1.715-0.768,1.715-1.715C31.37,27.722,30.602,26.954,29.655,26.954z"/>
			</g>
		</g>
	</g>
</g>
</svg>
