<?xml version="1.0" encoding="utf-8"?>
<!-- Generator: Adobe Illustrator 16.2.0, SVG Export Plug-In . SVG Version: 6.00 Build 0)  -->
<!DOCTYPE svg PUBLIC "-//W3C//DTD SVG 1.1//EN" "http://www.w3.org/Graphics/SVG/1.1/DTD/svg11.dtd">
<svg version="1.1" id="Слой_1" xmlns="http://www.w3.org/2000/svg" xmlns:xlink="http://www.w3.org/1999/xlink" x="0px" y="0px"
	 width="32px" height="32px" viewBox="0 0 32 32" enable-background="new 0 0 32 32" xml:space="preserve">
<g>
	<polygon fill="#29A6DD" points="16,16.191 0,0.19 32,0.19 32,32.191 	"/>
	<g>
		<g>
			<path fill="#FFFFFF" d="M14.881,6.349l0.284-1.046l-0.032-0.032l-0.569,0.773l-2.308,2.308L11.37,7.464l4.469-4.468l0.677,0.678
				L15.984,7.87l-0.286,1.009l0.039,0.037l0.551-0.754l2.326-2.325l0.888,0.887l-4.469,4.469l-0.678-0.68L14.881,6.349z"/>
			<path fill="#FFFFFF" d="M20.327,7.547l2.857,2.858l-0.823,0.824L20.44,9.309l-0.964,0.964l1.743,1.743l-0.824,0.824l-1.743-1.743
				l-1.001,1.002l1.951,1.952l-0.822,0.824l-2.892-2.891L20.327,7.547z"/>
			<path fill="#FFFFFF" d="M22.729,14.83l-0.698,0.877l0.025,0.025l0.9-0.697l3.271-1.586l0.608,0.609l-1.609,3.27l-0.685,0.889
				l0.031,0.031l0.894-0.703l3.018-1.838l0.963,0.963l-5.8,3.139l-0.634-0.635l1.553-3.277l0.571-0.799l-0.045-0.045l-0.805,0.576
				l-3.265,1.555l-0.666-0.666l3.145-5.793l1.027,1.027L22.729,14.83z"/>
		</g>
	</g>
</g>
</svg>
