<?xml version="1.0" encoding="utf-8"?>
<!-- Generator: Adobe Illustrator 16.2.0, SVG Export Plug-In . SVG Version: 6.00 Build 0)  -->
<!DOCTYPE svg PUBLIC "-//W3C//DTD SVG 1.1//EN" "http://www.w3.org/Graphics/SVG/1.1/DTD/svg11.dtd">
<svg version="1.1" id="Слой_1" xmlns="http://www.w3.org/2000/svg" xmlns:xlink="http://www.w3.org/1999/xlink" x="0px" y="0px"
	 width="42px" height="35.45px" viewBox="0 0 42 35.45" enable-background="new 0 0 42 35.45" xml:space="preserve">
<g>
	<path fill="#00B8BB" d="M34.763,14.668h-0.695c-1.745-5.234-6.941-9.043-13.07-9.043c-6.122,0-11.318,3.809-13.064,9.043H7.237
		c-1.453,0-2.628,1.18-2.628,2.629v3.062c0,1.453,1.18,2.629,2.628,2.629h0.621c2.506,9.697,12.754,12.425,12.871,12.459
		l0.264,0.064l0.264-0.061c0.117-0.028,10.402-2.648,12.891-12.463h0.615c1.449,0,2.629-1.181,2.629-2.629v-3.062
		C37.392,15.848,36.212,14.668,34.763,14.668L34.763,14.668z M29.849,27.141h-6.895c-0.334-0.607-0.979-1.021-1.721-1.021
		c-1.082,0-1.962,0.879-1.962,1.965c0,1.083,0.88,1.957,1.962,1.957c0.865,0,1.594-0.561,1.857-1.337h5.455
		c-2.902,3.03-6.514,4.238-7.539,4.535c-1.791-0.537-11.498-3.938-11.498-14.73c0-0.178,0.005-0.353,0.014-0.531
		c2.973-0.559,6.453-1.489,7.634-2.92c0,0,0.47,2.672-1.256,3.762c0,0,6.118-0.939,7.214-2.821c0,0,0.221,4.876,9.283,4.343
		C32.097,23.153,31.118,25.377,29.849,27.141L29.849,27.141z M41.319,18.135v1.392c0,1.18-1.063,2.107-2.418,2.107h-1.049v-5.085
		C37.627,8.338,30.46,2.195,20.997,2.195c-9.452,0-16.613,6.139-16.85,14.345v5.098H3.099c-1.354,0-2.417-0.928-2.417-2.107v-1.39
		c0-0.82,0.513-1.517,1.275-1.868C2.332,6.946,10.393,0,20.997,0c10.61,0,18.666,6.946,19.043,16.267
		C40.806,16.615,41.319,17.312,41.319,18.135L41.319,18.135z M41.319,18.135"/>
</g>
</svg>
