<?xml version="1.0" encoding="utf-8"?>
<!-- Generator: Adobe Illustrator 16.2.0, SVG Export Plug-In . SVG Version: 6.00 Build 0)  -->
<!DOCTYPE svg PUBLIC "-//W3C//DTD SVG 1.1//EN" "http://www.w3.org/Graphics/SVG/1.1/DTD/svg11.dtd">
<svg version="1.1" id="Слой_1" xmlns="http://www.w3.org/2000/svg" xmlns:xlink="http://www.w3.org/1999/xlink" x="0px" y="0px"
	 width="10.31px" height="16.206px" viewBox="0 0 10.31 16.206" enable-background="new 0 0 10.31 16.206" xml:space="preserve">
<g>
	<path fill="#00B8BB" d="M10.24,14.494c0.046,0.105,0.069,0.214,0.069,0.323c0,0.152-0.041,0.292-0.121,0.424
		c-0.08,0.131-0.194,0.232-0.339,0.301L9.169,15.86c-0.266,0.121-0.533,0.209-0.798,0.264c-0.268,0.055-0.536,0.082-0.81,0.082
		c-0.438,0-0.87-0.073-1.297-0.217c-0.428-0.147-0.838-0.355-1.229-0.626c-0.391-0.27-0.756-0.599-1.098-0.985
		c-0.343-0.385-0.65-0.814-0.919-1.288c-0.174-0.262-0.354-0.563-0.546-0.899c-0.16-0.286-0.344-0.629-0.551-1.029
		c-0.207-0.4-0.416-0.845-0.628-1.333C1.081,9.341,0.907,8.916,0.781,8.55S0.558,7.882,0.489,7.642
		c-0.08-0.283-0.137-0.524-0.166-0.726C0.211,6.543,0.129,6.17,0.077,5.801C0.024,5.431,0,5.065,0,4.704
		C0,4.23,0.047,3.773,0.142,3.336c0.095-0.438,0.239-0.845,0.438-1.223c0.196-0.378,0.445-0.714,0.748-1.012
		c0.302-0.296,0.658-0.539,1.071-0.726l0.671-0.309C3.175,0.022,3.28,0,3.388,0c0.15,0,0.29,0.04,0.42,0.124
		c0.126,0.082,0.224,0.197,0.286,0.344L5.39,3.402c0.044,0.106,0.066,0.213,0.066,0.32c0,0.156-0.04,0.299-0.12,0.434
		C5.254,4.288,5.141,4.388,4.995,4.454l-1.33,0.611C3.49,5.145,3.356,5.264,3.262,5.42C3.169,5.576,3.123,5.744,3.123,5.926
		c0,0.136,0.025,0.265,0.076,0.385l2.181,4.981c0.085,0.192,0.205,0.332,0.354,0.423s0.313,0.136,0.492,0.136
		c0.121,0,0.244-0.027,0.37-0.083l1.327-0.611c0.105-0.043,0.211-0.066,0.318-0.066c0.145,0,0.283,0.041,0.414,0.125
		c0.131,0.082,0.229,0.197,0.295,0.34L10.24,14.494z"/>
</g>
</svg>
