<?xml version="1.0" encoding="utf-8"?>
<!-- Generator: Adobe Illustrator 16.2.0, SVG Export Plug-In . SVG Version: 6.00 Build 0)  -->
<!DOCTYPE svg PUBLIC "-//W3C//DTD SVG 1.1//EN" "http://www.w3.org/Graphics/SVG/1.1/DTD/svg11.dtd">
<svg version="1.1" id="Слой_1" xmlns="http://www.w3.org/2000/svg" xmlns:xlink="http://www.w3.org/1999/xlink" x="0px" y="0px"
	 width="11.525px" height="12.349px" viewBox="0 0 11.525 12.349" enable-background="new 0 0 11.525 12.349" xml:space="preserve">
<g>
	<g id="user_copy_7_2_">
		<g>
			<path fill="#00B8BB" d="M9.439,7.121C9.711,6.46,9.881,5.726,9.881,4.939C9.881,2.21,8.037,0,5.763,0
				C3.49,0,1.647,2.21,1.647,4.939c0,0.787,0.167,1.521,0.441,2.182C0.824,8.177,0,9.748,0,11.525c0,0.455,0.37,0.824,0.824,0.824
				c0.455,0,0.823-0.369,0.823-0.824c0-1.184,0.507-2.243,1.307-2.995c0.735,0.83,1.719,1.348,2.809,1.348S7.838,9.36,8.573,8.53
				c0.801,0.751,1.308,1.811,1.308,2.995c0,0.455,0.368,0.824,0.82,0.824c0.456,0,0.824-0.369,0.824-0.824
				C11.525,9.748,10.704,8.177,9.439,7.121z M5.763,8.232c-1.362,0-2.47-1.473-2.47-3.293S4.4,1.646,5.763,1.646
				c1.364,0,2.471,1.473,2.471,3.293S7.127,8.232,5.763,8.232z"/>
		</g>
	</g>
</g>
</svg>
