<?xml version="1.0" encoding="utf-8"?>
<!-- Generator: Adobe Illustrator 16.2.0, SVG Export Plug-In . SVG Version: 6.00 Build 0)  -->
<!DOCTYPE svg PUBLIC "-//W3C//DTD SVG 1.1//EN" "http://www.w3.org/Graphics/SVG/1.1/DTD/svg11.dtd">
<svg version="1.1" id="Слой_1" xmlns="http://www.w3.org/2000/svg" xmlns:xlink="http://www.w3.org/1999/xlink" x="0px" y="0px"
	 width="32px" height="32px" viewBox="0 0 32 32" enable-background="new 0 0 32 32" xml:space="preserve">
<g>
	<rect x="0" fill="#F5F5F5" width="32" height="32"/>
	<g id="Right_27_">
		<g>
			<path fill="#333333" d="M12.822,15.156l4.75-4.199l0.004,0.003c0.209-0.186,0.49-0.304,0.799-0.304
				c0.654,0,1.188,0.513,1.188,1.145c0,0.334-0.15,0.633-0.387,0.842l0.002,0.003L15.382,16l3.795,3.354l-0.002,0.004
				c0.236,0.208,0.387,0.508,0.387,0.842c0,0.631-0.533,1.145-1.188,1.145c-0.309,0-0.59-0.116-0.799-0.305l-0.004,0.004
				l-4.75-4.199c-0.244-0.218-0.385-0.522-0.385-0.844C12.437,15.678,12.578,15.373,12.822,15.156z"/>
		</g>
	</g>
</g>
</svg>
