<?xml version="1.0" encoding="utf-8"?>
<!-- Generator: Adobe Illustrator 16.2.0, SVG Export Plug-In . SVG Version: 6.00 Build 0)  -->
<!DOCTYPE svg PUBLIC "-//W3C//DTD SVG 1.1//EN" "http://www.w3.org/Graphics/SVG/1.1/DTD/svg11.dtd">
<svg version="1.1" id="Слой_1" xmlns="http://www.w3.org/2000/svg" xmlns:xlink="http://www.w3.org/1999/xlink" x="0px" y="0px"
	 width="15.273px" height="14.996px" viewBox="0 0 15.273 14.996" enable-background="new 0 0 15.273 14.996" xml:space="preserve">
<g id="Buttons_1_" opacity="0.6">
	<g id="search_2_">
		<g>
			<path fill="#333333" d="M14.994,13.647l-3.002-3.001c1.955-2.613,1.77-6.318-0.605-8.693c-2.605-2.605-6.828-2.605-9.434,0
				c-2.604,2.605-2.604,6.829,0,9.435c2.375,2.374,6.08,2.559,8.692,0.606l3.001,3.002c0.372,0.371,0.976,0.371,1.348,0
				C15.366,14.623,15.366,14.02,14.994,13.647z M10.039,10.04c-1.86,1.862-4.878,1.862-6.738,0c-1.86-1.86-1.86-4.877,0-6.738
				s4.878-1.861,6.738,0C11.9,5.163,11.9,8.179,10.039,10.04z"/>
		</g>
	</g>
</g>
</svg>
