<?xml version="1.0" encoding="utf-8"?>
<!-- Generator: Adobe Illustrator 16.2.0, SVG Export Plug-In . SVG Version: 6.00 Build 0)  -->
<!DOCTYPE svg PUBLIC "-//W3C//DTD SVG 1.1//EN" "http://www.w3.org/Graphics/SVG/1.1/DTD/svg11.dtd">
<svg version="1.1" id="Слой_1" xmlns="http://www.w3.org/2000/svg" xmlns:xlink="http://www.w3.org/1999/xlink" x="0px" y="0px"
	 width="31.506px" height="29.574px" viewBox="0 0 31.506 29.574" enable-background="new 0 0 31.506 29.574" xml:space="preserve">
<g>
	<g opacity="0.6">
		<g id="bag_3_">
			<g>
				<path fill-rule="evenodd" clip-rule="evenodd" fill="#333333" d="M18.846,19.522c0-1.387-1.124-2.512-2.511-2.512h-1.258v-2.513
					c0-2.776-2.25-5.026-5.025-5.026s-5.025,2.25-5.025,5.026v2.513H3.769c-1.387,0-2.186,1.206-2.511,2.512L0,27.063
					c0,1.387,1.124,2.512,2.514,2.512h15.077c1.387,0,2.513-1.125,2.513-2.512L18.846,19.522z M7.539,14.497
					c0-1.387,1.125-2.513,2.513-2.513s2.513,1.125,2.513,2.513v2.513H7.539V14.497z M2.515,27.063l1.24-7.541h1.271v1.257
					c0,0.693,0.563,1.256,1.257,1.256c0.693,0,1.256-0.563,1.256-1.256v-1.257h5.025v1.257c0,0.693,0.562,1.256,1.257,1.256
					c0.693,0,1.256-0.563,1.256-1.256v-1.257h1.271l1.229,7.541H2.515z"/>
			</g>
		</g>
	</g>
	<g>
		<g id="Ellipse_2_3_">
			<g>
				<circle fill="#00B8BB" cx="23.068" cy="8.437" r="8.437"/>
			</g>
		</g>
	</g>
</g>
</svg>
